<?xml version="1.0" encoding="UTF-8"?>
<svg width="58px" height="78px" viewBox="0 0 58 78" version="1.1" xmlns="http://www.w3.org/2000/svg" xmlns:xlink="http://www.w3.org/1999/xlink">
    <!-- Generator: Sketch 54.1 (76490) - https://sketchapp.com -->
    <title>还未添加收货地址</title>
    <desc>Created with Sketch.</desc>
    <g id="页面1" stroke="none" stroke-width="1" fill="none" fill-rule="evenodd">
        <g id="我的-收货地址" transform="translate(-157.000000, -114.000000)">
            <g id="还未添加收货地址" transform="translate(157.000000, 114.000000)">
                <ellipse id="椭圆形" fill="#E5E5E5" cx="29" cy="73" rx="29" ry="5"></ellipse>
                <g id="收货地址复制" transform="translate(1.000000, 2.000000)" fill-rule="nonzero">
                    <g id="编组">
                        <path d="M19.7424216,2.71354535 C27.494179,2.71354535 33.8365132,9.11353717 33.8365132,17.1135621 C33.8365132,21.6469002 31.8104855,25.7358065 28.2869417,28.4913566 L28.1988533,28.5802458 C25.0276769,30.9802485 22.3850121,34.1802679 20.5351704,37.8247096 C20.3589942,38.0913767 20.0947295,38.2691545 19.7423752,38.2691545 C19.3900222,38.2691545 19.1257566,38.0913767 18.9495799,37.8247096 C17.2759057,34.5358152 14.8975245,31.5135929 11.9906318,29.1135901 L11.3740132,28.6691452 C7.67431129,25.8246966 5.64829289,21.6469339 5.64829289,17.1135537 C5.64829289,9.20245071 11.9906271,2.71353691 19.7423845,2.71353691 L19.7424216,2.71354535 Z M19.7423845,0.046866617 C10.4931296,0.046866617 3.00564201,7.69129739 3.00564201,17.1135584 C3.00564201,22.5357834 5.47211152,27.5135861 9.70036686,30.7135586 L10.3169854,31.1580034 C12.8715433,33.2913387 15.0737477,35.958009 16.5712452,38.9802313 C17.1878638,40.1357905 18.4210962,40.9357883 19.7424216,40.9357883 C21.0637424,40.9357882 22.2969795,40.2246749 22.913598,38.9802313 C24.5872723,35.780226 26.9656534,32.8469117 29.7844717,30.7135342 L29.8725601,30.624645 C34.1007922,27.3357506 36.4791641,22.4468699 36.4791641,17.1135199 C36.4791641,7.69130582 28.9916765,0.0468281795 19.7424216,0.0468281795 L19.7423845,0.046866617 Z" id="形状" fill="#E5E5E5"></path>
                        <path d="M19.830496,47.8692745 C10.3169715,47.8692745 0.0106376813,45.8248283 0.0106376813,41.2026104 C0.0106376813,38.8914968 2.65328392,37.024829 7.76239501,35.7803854 C8.46710191,35.6026075 9.17180417,36.0470524 9.34798089,36.7581662 C9.52415716,37.4692795 9.08371627,38.1803882 8.37900891,38.3581665 C4.06268843,39.4248365 2.65328856,40.6692801 2.65328856,41.2026151 C2.65328856,42.3581743 8.46712979,45.2026182 19.830496,45.2026182 C31.1938623,45.2026183 37.0077035,42.3581696 37.0077035,41.2026151 C37.0077035,40.6692801 35.0697642,38.9803907 29.4321415,38.0026098 C28.7274346,37.9137207 28.1989091,37.2026074 28.3750812,36.4914987 C28.5512574,35.7803854 29.1678764,35.2470551 29.8725787,35.4248287 C34.3650759,36.2248312 39.650373,37.9137207 39.650373,41.291523 C39.650373,45.8248611 29.4321601,47.869312 19.8305146,47.869312 L19.830496,47.8692745 Z" id="路径" fill="#E5E5E5"></path>
                        <path d="M19.7424216,24.9357946 C15.6022779,24.9357946 12.254934,21.558011 12.254934,17.380239 C12.254934,13.469125 15.6903755,10.1802306 19.7424216,10.1802306 C23.794477,10.1802306 27.2299092,13.469125 27.2299092,17.380239 C27.2299092,21.5580204 23.8825561,24.9357946 19.7424216,24.9357946 L19.7424216,24.9357946 Z" id="路径" fill="#B6B6B6"></path>
                        <path d="M19.7424216,11.6024666 C23.0897748,11.6024666 25.908607,14.2691369 25.908607,17.469161 C25.908607,20.8469446 23.1778724,23.6914026 19.7424216,23.6914026 C16.3950685,23.6914026 13.5762362,20.9358431 13.5762362,17.469161 C13.5762362,14.2691557 16.3950592,11.6024666 19.7424216,11.6024666 L19.7424216,11.6024666 Z M19.7424216,8.93579634 C14.8975849,8.93579634 10.9335854,12.9357963 10.9335854,17.4691188 C10.9335854,22.3579995 14.8975524,26.3580354 19.7424216,26.3580354 C24.5872583,26.3580354 28.5512579,22.3580323 28.5512579,17.4691188 C28.5512579,12.8468915 24.5872909,8.93579634 19.7424216,8.93579634 Z" id="形状" fill="#E5E5E5"></path>
                    </g>
                </g>
                <g id="收货地址" transform="translate(7.000000, 0.000000)" fill-rule="nonzero">
                    <g id="编组">
                        <path d="M23.1973454,3.1658029 C32.3056603,3.1658029 39.757903,10.63246 39.757903,19.9658225 C39.757903,25.2547169 37.3773205,30.0251076 33.2371565,33.239916 L33.1336527,33.34362 C29.4075204,36.1436233 26.3023892,39.8769792 24.1288253,44.1288279 C23.9218182,44.4399394 23.6113072,44.647347 23.1972908,44.647347 C22.7832761,44.647347 22.472764,44.4399394 22.2657564,44.1288279 C20.2991892,40.2917844 17.5045913,36.7658584 14.0889923,33.9658551 L13.3644656,33.4473361 C9.01731577,30.1288127 6.63674415,25.2547563 6.63674415,19.9658126 C6.63674415,10.7361925 14.0889869,3.16579306 23.1973017,3.16579306 L23.1973454,3.1658029 Z M23.1973017,0.0546777199 C12.3294273,0.0546777199 3.53162936,8.97318029 3.53162936,19.9658181 C3.53162936,26.2917473 6.42973104,32.0991838 11.3979311,35.832485 L12.1224578,36.351004 C15.1240633,38.8398952 17.7116535,41.9510105 19.4712131,45.4769365 C20.1957399,46.8250889 21.644788,47.7584196 23.1973454,47.7584196 C24.7498973,47.7584196 26.1989509,46.9287874 26.9234777,45.4769365 C28.8900449,41.743597 31.6846428,38.3213969 34.9967543,35.8324565 L35.1002581,35.7287525 C40.0684309,31.891709 42.8630178,26.1880148 42.8630178,19.9657732 C42.8630178,8.97319013 34.0652199,0.0546328761 23.1973454,0.0546328761 L23.1973017,0.0546777199 Z" id="形状" fill="#232323"></path>
                        <path d="M23.3008329,55.8474869 C12.1224415,55.8474869 0.0124992755,53.4622997 0.0124992755,48.0697122 C0.0124992755,45.373413 3.1176086,43.1956339 9.12081414,41.7437829 C9.94884475,41.5363754 10.7768699,42.0548945 10.9838776,42.8845272 C11.1908847,43.7141595 10.6733666,44.5437862 9.84533546,44.7511943 C4.7736589,45.9956426 3.11761406,47.4474935 3.11761406,48.0697177 C3.11761406,49.41787 9.9488775,52.7363879 23.3008329,52.7363879 C36.6527882,52.736388 43.4840517,49.4178645 43.4840517,48.0697177 C43.4840517,47.4474935 41.2069729,45.4771225 34.5827663,44.3363782 C33.7547357,44.2326741 33.1337182,43.4030419 33.3407204,42.5734152 C33.5477275,41.7437829 34.2722548,41.1215643 35.1002799,41.3289668 C40.3789642,42.2623031 46.5891883,44.2326741 46.5891883,48.1734436 C46.5891883,53.462338 34.5827881,55.8475306 23.3008547,55.8475306 L23.3008329,55.8474869 Z" id="路径" fill="#232323"></path>
                        <path d="M23.1973454,29.0917604 C18.3326765,29.0917604 14.3995475,25.1510129 14.3995475,20.2769455 C14.3995475,15.7139792 18.4361912,11.8769357 23.1973454,11.8769357 C27.9585105,11.8769357 31.9951433,15.7139792 31.9951433,20.2769455 C31.9951433,25.1510238 28.0620034,29.0917604 23.1973454,29.0917604 L23.1973454,29.0917604 Z" id="路径" fill="#FEB21C"></path>
                        <path d="M23.1973454,13.5362111 C27.1304853,13.5362111 30.4426132,16.6473264 30.4426132,20.3806878 C30.4426132,24.3214353 27.2340001,27.6399697 23.1973454,27.6399697 C19.2642055,27.6399697 15.9520776,24.4251503 15.9520776,20.3806878 C15.9520776,16.6473483 19.2641946,13.5362111 23.1973454,13.5362111 L23.1973454,13.5362111 Z M23.1973454,10.4250957 C17.5046623,10.4250957 12.8469628,15.091766 12.8469628,20.3806386 C12.8469628,26.0843327 17.5046241,30.7510413 23.1973454,30.7510413 C28.8900285,30.7510413 33.547728,26.084371 33.547728,20.3806386 C33.547728,14.9880401 28.8900668,10.4250957 23.1973454,10.4250957 Z" id="形状" fill="#232323"></path>
                    </g>
                </g>
            </g>
        </g>
    </g>
</svg>