<?xml version="1.0" encoding="UTF-8"?>
<svg width="14px" height="14px" viewBox="0 0 14 14" version="1.1" xmlns="http://www.w3.org/2000/svg" xmlns:xlink="http://www.w3.org/1999/xlink">
    <!-- Generator: Sketch 54.1 (76490) - https://sketchapp.com -->
    <title>当前余额</title>
    <desc>Created with Sketch.</desc>
    <g id="页面1" stroke="none" stroke-width="1" fill="none" fill-rule="evenodd">
        <g id="我的-余额充值" transform="translate(-12.000000, -97.000000)" fill="#FEC149" fill-rule="nonzero">
            <path d="M18.9497848,97 C22.7862267,97 26,100.184549 26,104.030043 C26,107.875536 22.7862267,111 18.9497848,111 C15.1133429,111 12,107.875536 12,104.030043 C12,100.184549 15.1133429,97 18.9497848,97 Z M22.1836442,105.432046 L19.713056,105.432046 L19.713056,104.010014 L22.1836442,104.010014 C22.5652798,104.010014 22.8866571,103.689557 22.8866571,103.309013 C22.8866571,102.928469 22.5652798,102.608011 22.1836442,102.608011 L20.6771879,102.608011 L22.2439024,100.304721 C22.4447633,100.004292 22.3644189,99.5636624 22.0430416,99.3633763 C21.7819225,99.1630901 21.3400287,99.2432046 21.1391679,99.5636624 L19.0301291,102.587983 L16.9612626,99.5636624 C16.7804878,99.2432046 16.338594,99.1630901 16.0573888,99.3633763 C15.7360115,99.5436338 15.6556671,99.9842632 15.856528,100.304721 L17.4232425,102.587983 L15.8163558,102.587983 C15.4347202,102.587983 15.1133429,102.908441 15.1133429,103.288984 C15.1133429,103.669528 15.4347202,103.989986 15.8163558,103.989986 L18.3873745,103.989986 L18.4074605,104.030043 L18.4074605,105.412017 L15.8163558,105.412017 C15.4347202,105.412017 15.1133429,105.732475 15.1133429,106.113019 C15.1133429,106.493562 15.4347202,106.81402 15.8163558,106.81402 L18.3873745,106.81402 L18.3873745,107.895565 C18.3873745,108.25608 18.6685796,108.576538 19.0301291,108.576538 C19.4318508,108.576538 19.713056,108.25608 19.713056,107.895565 L19.713056,106.834049 L22.1836442,106.834049 C22.5652798,106.834049 22.8866571,106.513591 22.8866571,106.133047 C22.8866571,105.752504 22.5652798,105.432046 22.1836442,105.432046 Z" id="当前余额"></path>
        </g>
    </g>
</svg>