<?xml version="1.0" standalone="no"?><!DOCTYPE svg PUBLIC "-//W3C//DTD SVG 1.1//EN" "http://www.w3.org/Graphics/SVG/1.1/DTD/svg11.dtd"><svg t="1575878674148" class="icon" viewBox="0 0 1024 1024" version="1.1" xmlns="http://www.w3.org/2000/svg" p-id="2152" xmlns:xlink="http://www.w3.org/1999/xlink" width="200" height="200"><defs><style type="text/css"></style></defs><path d="M896 708.266667 896 708.266667l85.333333-384 0 0c0-2.133333 0-4.266667 0-4.266667 0-12.8-8.533333-21.333333-21.333333-21.333333L275.2 298.666667l-29.866667-113.066667 0 0C243.2 177.066667 234.666667 170.666667 226.133333 170.666667L64 170.666667C51.2 170.666667 42.666667 179.2 42.666667 192s8.533333 21.333333 21.333333 21.333333l145.066667 0L341.333333 710.4l0 0c2.133333 6.4 6.4 10.666667 12.8 12.8C345.6 736 341.333333 750.933333 341.333333 768c0 46.933333 38.4 85.333333 85.333333 85.333333s85.333333-38.4 85.333333-85.333333c0-14.933333-4.266667-29.866667-12.8-42.666667l236.8 0c-6.4 12.8-12.8 27.733333-12.8 42.666667 0 46.933333 38.4 85.333333 85.333333 85.333333s85.333333-38.4 85.333333-85.333333c0-17.066667-4.266667-32-12.8-44.8C889.6 721.066667 893.866667 714.666667 896 708.266667zM808.533333 341.333333l125.866667 0-19.2 85.333333-115.2 0L808.533333 341.333333zM288 341.333333l140.8 0 8.533333 85.333333-128 0L288 341.333333zM345.6 554.666667l-23.466667-85.333333 121.6 0 8.533333 85.333333L345.6 554.666667zM356.266667 597.333333l100.266667 0 8.533333 85.333333-87.466667 0L356.266667 597.333333zM426.666667 810.666667c-23.466667 0-42.666667-19.2-42.666667-42.666667 0-23.466667 19.2-42.666667 42.666667-42.666667s42.666667 19.2 42.666667 42.666667C469.333333 791.466667 450.133333 810.666667 426.666667 810.666667zM597.333333 682.666667l-87.466667 0-8.533333-85.333333L597.333333 597.333333 597.333333 682.666667zM597.333333 554.666667l-102.4 0-8.533333-85.333333L597.333333 469.333333 597.333333 554.666667zM597.333333 426.666667l-115.2 0-8.533333-85.333333L597.333333 341.333333 597.333333 426.666667zM727.466667 682.666667 640 682.666667l0-85.333333 96 0L727.466667 682.666667zM742.4 554.666667 640 554.666667l0-85.333333 110.933333 0L742.4 554.666667zM755.2 426.666667 640 426.666667l0-85.333333 125.866667 0L755.2 426.666667zM810.666667 810.666667c-23.466667 0-42.666667-19.2-42.666667-42.666667 0-23.466667 19.2-42.666667 42.666667-42.666667s42.666667 19.2 42.666667 42.666667C853.333333 791.466667 834.133333 810.666667 810.666667 810.666667zM857.6 682.666667l-87.466667 0 8.533333-85.333333 96 0L857.6 682.666667zM785.066667 554.666667l8.533333-85.333333 110.933333 0-19.2 85.333333L785.066667 554.666667z" p-id="2153" fill="#FEB21C"></path></svg>