<?xml version="1.0" encoding="UTF-8"?>
<svg width="58px" height="70px" viewBox="0 0 58 70" version="1.1" xmlns="http://www.w3.org/2000/svg" xmlns:xlink="http://www.w3.org/1999/xlink">
    <!-- Generator: Sketch 54.1 (76490) - https://sketchapp.com -->
    <title>暂无交易记录</title>
    <desc>Created with Sketch.</desc>
    <g id="页面1" stroke="none" stroke-width="1" fill="none" fill-rule="evenodd">
        <g id="我的-余额明细1" transform="translate(-157.000000, -307.000000)">
            <g id="暂无交易记录" transform="translate(157.000000, 307.000000)">
                <ellipse id="椭圆形" fill="#E5E5E5" cx="29" cy="65" rx="29" ry="5"></ellipse>
                <g id="交易量复制" opacity="0.888555618" transform="translate(0.000000, 5.000000)">
                    <ellipse id="椭圆形" fill="#C9C9C9" cx="19" cy="18.5" rx="14" ry="14.5"></ellipse>
                    <path d="M29.12,4.41 C29.4,4.62 29.68,4.9 29.89,5.18 C33.11,8.4 35,12.81 35,17.5 C35,27.16 27.16,35 17.5,35 C16.73,35 16.1,34.37 16.1,33.6 C16.1,32.83 16.73,32.2 17.5,32.2 C25.62,32.2 32.2,25.62 32.2,17.5 C32.2,13.58 30.66,9.87 27.93,7.14 C26.74,5.95 25.41,4.97 23.87,4.27 C22.54,3.64 22.96,1.61 24.5,1.61 L31.5,1.61 C32.27,1.61 32.9,2.24 32.9,3.01 C32.9,3.78 32.27,4.41 31.5,4.41 L29.12,4.41 Z M5.04,29.82 C1.82,26.53 0,22.19 0,17.5 C0,7.84 7.84,0 17.5,0 C18.27,0 18.9,0.63 18.9,1.4 C18.9,2.17 18.27,2.8 17.5,2.8 C9.38,2.8 2.8,9.38 2.8,17.5 C2.8,21.42 4.34,25.13 7.07,27.86 C8.4,29.19 10.01,30.31 11.76,31.08 C13.16,31.71 12.74,33.74 11.2,33.74 L3.5,33.74 C2.73,33.74 2.1,33.11 2.1,32.34 C2.1,31.57 2.73,30.94 3.5,30.94 L6.3,30.94 C5.88,30.59 5.46,30.24 5.04,29.82 Z" id="形状" fill="#C9C9C9" fill-rule="nonzero"></path>
                    <path d="M16.9466411,20.4722876 L16.9466411,19.0246506 L13.7865644,19.0246506 C13.0141012,19.0246506 12.3820859,18.3732139 12.3820859,17.5770136 C12.3820859,16.7808132 13.0141012,16.1293766 13.7865644,16.1293766 L15.4719387,16.1293766 L11.4691749,12.510284 C10.9073835,12.0036111 10.8371595,11.062647 11.328727,10.4835922 C11.8202945,9.90453743 12.7332055,9.83215558 13.294997,10.3388285 L18,14.5369758 L22.705003,10.3388285 C23.2667945,9.83215558 24.1797055,9.90453743 24.671273,10.4835922 C25.1628405,11.062647 25.0926165,12.0036111 24.5308251,12.510284 L20.5280613,16.1293766 L22.2134356,16.1293766 C22.9858988,16.1293766 23.6179141,16.7808132 23.6179141,17.5770136 C23.6179141,18.3732139 22.9858988,19.0246506 22.2134356,19.0246506 L19.7555982,19.0246506 L19.7555982,20.4722876 L22.2134356,20.4722876 C22.9858988,20.4722876 23.6179141,21.1237242 23.6179141,21.9199246 C23.6179141,22.7161249 22.9858988,23.3675616 22.2134356,23.3675616 L19.7555982,23.3675616 L19.7555982,26.552363 C19.7555982,27.3485633 19.1235828,28 18.3511196,28 C17.5786564,28 16.9466411,27.3485633 16.9466411,26.552363 L16.9466411,23.3675616 L13.7865644,23.3675616 C13.0141012,23.3675616 12.3820859,22.7161249 12.3820859,21.9199246 C12.3820859,21.1237242 13.0141012,20.4722876 13.7865644,20.4722876 L16.9466411,20.4722876 L16.9466411,20.4722876 Z" id="路径" fill="#ADADAD" fill-rule="nonzero"></path>
                </g>
                <g id="交易量" transform="translate(7.000000, 0.000000)">
                    <ellipse id="椭圆形" fill="#FEB21C" cx="26.5" cy="25" rx="18.5" ry="19"></ellipse>
                    <path d="M22.09,26.79 L22.09,24.91 L17.86,24.91 C16.826,24.91 15.98,24.064 15.98,23.03 C15.98,21.996 16.826,21.15 17.86,21.15 L20.116,21.15 L14.758,16.45 C14.006,15.792 13.912,14.57 14.57,13.818 C15.228,13.066 16.45,12.972 17.202,13.63 L23.5,19.082 L29.798,13.63 C30.55,12.972 31.772,13.066 32.43,13.818 C33.088,14.57 32.994,15.792 32.242,16.45 L26.884,21.15 L29.14,21.15 C30.174,21.15 31.02,21.996 31.02,23.03 C31.02,24.064 30.174,24.91 29.14,24.91 L25.85,24.91 L25.85,26.79 L29.14,26.79 C30.174,26.79 31.02,27.636 31.02,28.67 C31.02,29.704 30.174,30.55 29.14,30.55 L25.85,30.55 L25.85,34.686 C25.85,35.72 25.004,36.566 23.97,36.566 C22.936,36.566 22.09,35.72 22.09,34.686 L22.09,30.55 L17.86,30.55 C16.826,30.55 15.98,29.704 15.98,28.67 C15.98,27.636 16.826,26.79 17.86,26.79 L22.09,26.79 L22.09,26.79 Z M39.104,5.922 C39.48,6.204 39.856,6.58 40.138,6.956 C44.462,11.28 47,17.202 47,23.5 C47,36.472 36.472,47 23.5,47 C22.466,47 21.62,46.154 21.62,45.12 C21.62,44.086 22.466,43.24 23.5,43.24 C34.404,43.24 43.24,34.404 43.24,23.5 C43.24,18.236 41.172,13.254 37.506,9.588 C35.908,7.99 34.122,6.674 32.054,5.734 C30.268,4.888 30.832,2.162 32.9,2.162 L42.3,2.162 C43.334,2.162 44.18,3.008 44.18,4.042 C44.18,5.076 43.334,5.922 42.3,5.922 L39.104,5.922 Z M6.768,40.044 C2.444,35.626 0,29.798 0,23.5 C0,10.528 10.528,0 23.5,0 C24.534,0 25.38,0.846 25.38,1.88 C25.38,2.914 24.534,3.76 23.5,3.76 C12.596,3.76 3.76,12.596 3.76,23.5 C3.76,28.764 5.828,33.746 9.494,37.412 C11.28,39.198 13.442,40.702 15.792,41.736 C17.672,42.582 17.108,45.308 15.04,45.308 L4.7,45.308 C3.666,45.308 2.82,44.462 2.82,43.428 C2.82,42.394 3.666,41.548 4.7,41.548 L8.46,41.548 C7.896,41.078 7.332,40.608 6.768,40.044 Z" id="形状" fill="#36362F" fill-rule="nonzero"></path>
                </g>
            </g>
        </g>
    </g>
</svg>