<?xml version="1.0" encoding="UTF-8"?>
<svg width="27px" height="27px" viewBox="0 0 27 27" version="1.1" xmlns="http://www.w3.org/2000/svg" xmlns:xlink="http://www.w3.org/1999/xlink">
    <!-- Generator: Sketch 54.1 (76490) - https://sketchapp.com -->
    <title>垃圾桶-白</title>
    <desc>Created with Sketch.</desc>
    <g id="页面1" stroke="none" stroke-width="1" fill="none" fill-rule="evenodd">
        <g id="购物车-购物车" transform="translate(-307.000000, -336.000000)" fill="#FFFFFF" fill-rule="nonzero">
            <g id="垃圾桶-白" transform="translate(307.000000, 336.000000)">
                <g id="编组" transform="translate(0.385419, 0.102501)">
                    <path d="M25.8891317,3.31584386 L18.1243831,3.31584386 L18.1243831,0.00291500339 L7.7714804,0.00291500339 L7.7714804,3.31584386 L0.0067031328,3.31584386 L0.0067031328,4.97233579 L1.99100232,4.97233579 L1.99100232,26.7549461 L24.4224347,26.7549461 L24.4224347,4.97233579 L25.889103,4.97233579 L25.889103,3.31584386 L25.8891317,3.31584386 Z M22.6969795,25.0156791 L3.71654339,25.0156791 L3.71654339,5.13796848 L22.6969795,5.13796848 L22.6969795,25.0156791 L22.6969795,25.0156791 Z M9.49693553,1.65935193 L16.3989566,1.65935193 L16.3989566,3.31581636 L9.49693553,3.31581636 L9.49693553,1.65937943 L9.49693553,1.65935193 Z" id="形状"></path>
                    <path d="M12.0851755,8.28526464 L13.8106879,8.28526464 L13.8106879,21.5370626 L12.0851755,21.5370626 L12.0851755,8.28526464 Z M17.2616555,8.28526464 L18.9871679,8.28526464 L18.9871679,21.5370626 L17.2616555,21.5370626 L17.2616555,8.28526464 Z M6.90869554,8.28526464 L8.63420796,8.28526464 L8.63420796,21.5370626 L6.90869554,21.5370626 L6.90869554,8.28526464 Z" id="形状"></path>
                </g>
            </g>
        </g>
    </g>
</svg>