<?xml version="1.0" standalone="no"?><!DOCTYPE svg PUBLIC "-//W3C//DTD SVG 1.1//EN" "http://www.w3.org/Graphics/SVG/1.1/DTD/svg11.dtd"><svg t="1576121845792" class="icon" viewBox="0 0 1024 1024" version="1.1" xmlns="http://www.w3.org/2000/svg" p-id="3241" xmlns:xlink="http://www.w3.org/1999/xlink" width="200" height="200"><defs><style type="text/css"></style></defs><path d="M188.7 452.9h-64.2C55.8 452.9 0 397.1 0 328.4V177.1C0 108.5 55.8 52.6 124.5 52.6h775.3c68.7 0 124.5 55.8 124.5 124.5v139.2c0 68.7-55.8 124.5-124.5 124.5H782.2v-64.3h117.6c33.2 0 60.3-27 60.3-60.3V177.1c0-33.2-27-60.3-60.3-60.3H124.5c-33.2 0-60.3 27-60.3 60.3v151.2c0 33.2 27 60.3 60.3 60.3h64.2v64.3z" fill="#1E2D3B" p-id="3242"></path><path d="M210.1 970.1c-3.7 0-7.4-0.6-11.1-2-12.7-4.6-21-16.7-21-30.1V252.8c0-17.8 14.4-32.1 32.1-32.1h604.2c17.8 0 32.1 14.4 32.1 32.1v148c0 17.8-14.4 32.1-32.1 32.1-17.8 0-32.1-14.4-32.1-32.1V284.9h-540v565.9l28.7-33.7c5.8-6.9 14.4-10.9 23.4-11.2s17.8 3.2 24.1 9.7l76.5 78.6 97.3-78.5c12.4-10 30.4-9.4 42.2 1.6l82.1 77 89.7-77.9c13.3-11.5 33.3-10.2 45 2.8l30.8 34.5V583.9c0-17.8 14.4-32.1 32.1-32.1 17.8 0 32.1 14.4 32.1 32.1V938c0 13.4-8.2 25.3-20.7 30s-26.5 1.3-35.5-8.6l-65.9-73.7-87.7 76.1c-12.4 10.8-31 10.4-43.1-0.8l-82.9-77.7-98.3 79.3c-13 10.4-31.6 9.3-43.2-2.6l-72.3-74.3-62.5 73.2c-5.8 7.3-14.8 11.2-24 11.2z" fill="#1E2D3B" p-id="3243"></path><path d="M865.6 282.6h-707c-17.8 0-32.1-14.4-32.1-32.1 0-17.8 14.4-32.1 32.1-32.1h707c17.8 0 32.1 14.4 32.1 32.1 0.1 17.7-14.3 32.1-32.1 32.1z m-202.8 231H361.5c-17.7 0-32.1-14.5-32.1-32.1 0-17.7 14.5-32.1 32.1-32.1h301.3c17.7 0 32.1 14.5 32.1 32.1s-14.4 32.1-32.1 32.1z m0 176.9H361.5c-17.7 0-32.1-14.5-32.1-32.1 0-17.7 14.5-32.1 32.1-32.1h301.3c17.7 0 32.1 14.5 32.1 32.1s-14.4 32.1-32.1 32.1z" fill="#1E2D3B" p-id="3244"></path></svg>