<?xml version="1.0" encoding="UTF-8"?>
<svg width="10px" height="10px" viewBox="0 0 10 10" version="1.1" xmlns="http://www.w3.org/2000/svg" xmlns:xlink="http://www.w3.org/1999/xlink">
    <!-- Generator: Sketch 54.1 (76490) - https://sketchapp.com -->
    <title>加-品牌色</title>
    <desc>Created with Sketch.</desc>
    <g id="页面1" stroke="none" stroke-width="1" fill="none" fill-rule="evenodd">
        <g id="购物车提交订单" transform="translate(-149.000000, -97.000000)" fill="#FEB21C" fill-rule="nonzero">
            <g id="编组" transform="translate(149.000000, 94.000000)">
                <g id="加-品牌色" transform="translate(0.000000, 3.000000)">
                    <path d="M9.23471055,5.57721703 L5.57721703,5.57721703 L5.57721703,9.23471055 C5.57721703,9.44742329 5.31868988,9.81221014 4.99971743,9.81221014 C4.68093835,9.81221014 4.42221784,9.44742329 4.42221784,9.23471055 L4.42221784,5.57721703 L0.764724323,5.57721703 C0.552204935,5.57721703 0.187224725,5.31868988 0.187224725,4.99971743 C0.187224725,4.68074499 0.552203861,4.42221784 0.764724323,4.42221784 L4.42221784,4.42221784 L4.42221784,0.764724323 C4.42221784,0.552204935 4.68093728,0.187224725 4.99971743,0.187224725 C5.31868988,0.187224725 5.57721703,0.552203861 5.57721703,0.764724323 L5.57721703,4.42221784 L9.23471055,4.42221784 C9.44722993,4.42221784 9.81221014,4.68074499 9.81221014,4.99971743 C9.81221014,5.31868988 9.44723101,5.57721703 9.23471055,5.57721703 Z" id="路径"></path>
                </g>
            </g>
        </g>
    </g>
</svg>