<?xml version="1.0" encoding="UTF-8"?>
<svg width="58px" height="79px" viewBox="0 0 58 79" version="1.1" xmlns="http://www.w3.org/2000/svg" xmlns:xlink="http://www.w3.org/1999/xlink">
    <!-- Generator: Sketch 54.1 (76490) - https://sketchapp.com -->
    <title>暂无订单记录</title>
    <desc>Created with Sketch.</desc>
    <g id="页面1" stroke="none" stroke-width="1" fill="none" fill-rule="evenodd">
        <g id="我的-暂无订单" transform="translate(-157.000000, -163.000000)">
            <g id="暂无订单记录" transform="translate(157.000000, 163.000000)">
                <g id="订单复制" opacity="0.47030785" transform="translate(2.000000, 4.000000)" fill-rule="nonzero">
                    <g id="Group">
                        <path d="M28.1028956,8.50149147 C27.7950294,8.43137255 27.4101966,8.43137255 27.1023304,8.43137255 L9.24609011,8.43137255 C8.9382239,8.43137255 8.70732424,8.43137255 8.39945803,8.50149147 C5.08989625,8.85208607 1.42284939,10.7788831 1.42284939,13.8641156 L1.42284939,36.2945308 C1.42284939,39.6602389 5.55169557,41.7323132 9.24609011,41.7323132 L22.3069925,41.3389452 C24.4620559,39.72621 26.5955471,37.6969091 27.827012,36.2945308 C28.3657779,35.7335794 30.8141409,32.2661796 31.1220071,31.8454661 L32.6142801,14.5287861 C32.6912466,11.5136725 31.3354908,8.99232391 28.1028956,8.50149147 Z" id="Path" fill="#CECECE"></path>
                        <path d="M12.1126113,6.5752251 L21.7334304,6.5752251 C22.9648952,6.5752251 23.8884939,5.58273829 23.8884939,4.43756121 L23.8884939,2.14720704 C23.8884939,0.925684811 22.8879287,0.00954314238 21.7334304,0.00954314238 L12.1126113,0.00954314238 C10.8811464,0.00954314238 9.95754779,1.00202995 9.95754779,2.14720704 L9.95754779,4.43756121 C9.88058124,5.58273829 10.8811464,6.5752251 12.1126113,6.5752251 Z M12.1126113,2.0708619 L21.7334304,2.0708619 L21.7334304,4.36121607 L12.1126113,4.36121607 L12.1126113,2.0708619 L12.1126113,2.0708619 Z M27.8907546,2.68162301 C27.2750222,2.68162301 26.8132229,3.13969384 26.8132229,3.75045496 C26.8132229,4.36121607 27.2750222,4.8192869 27.8907546,4.8192869 C28.7373867,4.8192869 31.3542495,4.8192869 31.3542495,10.0107564 L31.3542495,28.8680057 C31.3542495,29.1733863 29.891885,29.7078022 29.199186,29.7078022 L22.657029,29.7078022 C20.7328652,29.7078022 19.2705007,31.1583599 19.2705007,33.0669884 L19.2705007,38.8692189 C19.2705007,40.4724668 19.6553335,41.4649536 20.5019655,41.9993696 C20.8867983,42.228405 21.2716311,42.3047502 21.5794973,42.3047502 C22.2721963,42.3047502 22.8109621,41.9993696 23.1188284,41.9230245 C24.5811929,41.2359182 29.7379519,35.9681036 31.3542495,34.0594752 C33.2784133,31.769121 33.6632461,30.3949085 33.6632461,28.9443508 L33.6632461,10.0871015 C33.5862796,5.43004802 31.5081826,2.68162301 27.8907546,2.68162301 Z M29.5840188,32.7616078 C27.659855,35.051962 22.9648952,39.6326703 22.1182632,40.014396 C21.9643301,40.0907411 21.8103969,40.1670863 21.6564638,40.1670863 C21.5794973,40.014396 21.5025307,39.7090154 21.5025307,38.9455641 L21.5025307,33.1433335 C21.5025307,32.6089175 21.8873635,31.9981564 22.657029,31.9981564 L29.199186,31.9981564 C29.4300857,31.9981564 29.8149185,31.9981564 30.2767178,31.8454661 L29.5840188,32.7616078 L29.5840188,32.7616078 Z M16.114872,40.3961217 L7.41765154,40.3961217 C4.56988908,40.3961217 2.26089249,38.1057675 2.26089249,35.2046522 L2.26089249,10.0871015 C2.26089249,8.17847302 2.72269181,4.89563204 6.03225359,4.89563204 C6.64798601,4.89563204 7.10978533,4.43756121 7.10978533,3.8268001 C7.10978533,3.21603898 6.64798601,2.75796815 6.03225359,2.75796815 C2.33785905,2.75796815 0.0288624574,5.58273829 0.0288624574,10.1634466 L0.0288624574,35.2809974 C0.0288624574,39.3272898 3.33842424,42.6864759 7.41765154,42.6864759 L16.114872,42.6864759 C16.7306045,42.6864759 17.1924038,42.228405 17.1924038,41.6176439 C17.1924038,40.9305377 16.7306045,40.3961217 16.114872,40.3961217 Z" id="Shape" fill="#CECECE"></path>
                        <path d="M26.4283901,10.7742077 L6.95585223,10.7742077 C6.3401198,10.7742077 5.87832048,11.2322786 5.87832048,11.8430397 C5.87832048,12.4538008 6.3401198,12.9118716 6.95585223,12.9118716 L26.4283901,12.9118716 C27.0441226,12.9118716 27.5059219,12.3774557 27.5059219,11.7666946 C27.4289553,11.3086237 26.967156,10.8505529 26.4283901,10.7742077 L26.4283901,10.7742077 Z M26.4283901,24.8217133 L6.95585223,24.8217133 C6.3401198,24.8217133 5.87832048,25.2797842 5.87832048,25.8905453 C5.87832048,26.5013064 6.3401198,26.9593772 6.95585223,26.9593772 L26.4283901,26.9593772 C27.0441226,26.9593772 27.5059219,26.4249613 27.5059219,25.8142001 C27.5059219,25.2797842 27.0441226,24.8217133 26.4283901,24.8217133 Z M26.4283901,17.7979605 L6.95585223,17.7979605 C6.3401198,17.7979605 5.87832048,18.2560314 5.87832048,18.8667925 C5.87832048,19.4775536 6.3401198,19.9356244 6.95585223,19.9356244 L26.4283901,19.9356244 C27.0441226,19.9356244 27.5059219,19.4012085 27.5059219,18.7904473 C27.4289553,18.2560314 26.967156,17.8743057 26.4283901,17.7979605 L26.4283901,17.7979605 Z" id="Shape" fill="#B6B6B6"></path>
                    </g>
                </g>
                <g id="订单" transform="translate(9.000000, 0.000000)" fill-rule="nonzero">
                    <g id="Group" transform="translate(0.385874, 0.157588)">
                        <path d="M33.0622301,10.0831643 C32.7000346,10 32.2472901,10 31.8850946,10 L10.8777531,10 C10.5155575,10 10.2439109,10 9.88171532,10.0831643 C5.98811323,10.4989858 1.67394046,12.7842568 1.67394046,16.443486 L1.67394046,43.0470016 C1.67394046,47.038888 6.53140655,49.4964645 10.8777531,49.4964645 L26.2435205,49.0299117 C28.7788893,47.1171328 31.288879,44.7102876 32.7376612,43.0470016 C33.3715034,42.3816872 36.2519305,38.2691898 36.614126,37.770204 L38.3697412,17.231816 C38.4602901,13.6557511 36.8652833,10.6653144 33.0622301,10.0831643 Z" id="Path" fill="#FEB21C"></path>
                        <path d="M14.2501309,7.79852279 L25.5687416,7.79852279 C27.0175238,7.79852279 28.1041104,6.62138728 28.1041104,5.26315399 L28.1041104,2.54668741 C28.1041104,1.09790524 26.9269749,0.0113186107 25.5687416,0.0113186107 L14.2501309,0.0113186107 C12.8013487,0.0113186107 11.7147621,1.18845413 11.7147621,2.54668741 L11.7147621,5.26315399 C11.6242132,6.62138728 12.8013487,7.79852279 14.2501309,7.79852279 Z M14.2501309,2.45613853 L25.5687416,2.45613853 L25.5687416,5.1726051 L14.2501309,5.1726051 L14.2501309,2.45613853 L14.2501309,2.45613853 Z M32.8126525,3.18052962 C32.0882614,3.18052962 31.5449681,3.72382293 31.5449681,4.44821402 C31.5449681,5.1726051 32.0882614,5.71589842 32.8126525,5.71589842 C33.8086903,5.71589842 36.8873524,5.71589842 36.8873524,11.8732227 L36.8873524,34.2387975 C36.8873524,34.600993 35.1669235,35.2348352 34.3519836,35.2348352 L26.6553283,35.2348352 C24.3916061,35.2348352 22.6711773,36.955264 22.6711773,39.2189862 L22.6711773,46.1007015 C22.6711773,48.0022281 23.1239217,49.1793636 24.1199595,49.8132058 C24.5727039,50.0848525 25.0254483,50.1754014 25.3876439,50.1754014 C26.2025838,50.1754014 26.836426,49.8132058 27.1986216,49.7226569 C28.9190504,48.907717 34.9858258,42.6598438 36.8873524,40.3961217 C39.1510745,37.6796551 39.603819,36.0497752 39.603819,34.3293463 L39.603819,11.9637715 C39.5132701,6.44028951 37.0684501,3.18052962 32.8126525,3.18052962 Z M34.804728,38.8567906 C32.5410059,41.5732572 27.0175238,47.0061904 26.0214861,47.4589348 C25.8403883,47.5494837 25.6592905,47.6400326 25.4781928,47.6400326 C25.3876439,47.4589348 25.297095,47.0967393 25.297095,46.1912504 L25.297095,39.3095351 C25.297095,38.6756929 25.7498394,37.9513018 26.6553283,37.9513018 L34.3519836,37.9513018 C34.6236302,37.9513018 35.0763747,37.9513018 35.619668,37.770204 L34.804728,38.8567906 L34.804728,38.8567906 Z M18.958673,47.9116792 L8.72664887,47.9116792 C5.3763401,47.9116792 2.65987352,45.1952127 2.65987352,41.754355 L2.65987352,11.9637715 C2.65987352,9.7000494 3.20316684,5.80644731 7.09676893,5.80644731 C7.82116002,5.80644731 8.36445333,5.26315399 8.36445333,4.5387629 C8.36445333,3.81437182 7.82116002,3.2710785 7.09676893,3.2710785 C2.75042241,3.2710785 0.0339558322,6.62138728 0.0339558322,12.0543204 L0.0339558322,41.8449039 C0.0339558322,46.6439948 3.92755792,50.6281458 8.72664887,50.6281458 L18.958673,50.6281458 C19.6830641,50.6281458 20.2263574,50.0848525 20.2263574,49.3604614 C20.2263574,48.5455214 19.6830641,47.9116792 18.958673,47.9116792 Z" id="Shape" fill="#555555"></path>
                        <path d="M31.0922237,12.7787115 L8.18335556,12.7787115 C7.45896447,12.7787115 6.91567116,13.3220048 6.91567116,14.0463959 C6.91567116,14.770787 7.45896447,15.3140803 8.18335556,15.3140803 L31.0922237,15.3140803 C31.8166148,15.3140803 32.3599081,14.6802381 32.3599081,13.955847 C32.2693592,13.4125537 31.7260659,12.8692604 31.0922237,12.7787115 L31.0922237,12.7787115 Z M31.0922237,29.4397065 L8.18335556,29.4397065 C7.45896447,29.4397065 6.91567116,29.9829998 6.91567116,30.7073909 C6.91567116,31.431782 7.45896447,31.9750753 8.18335556,31.9750753 L31.0922237,31.9750753 C31.8166148,31.9750753 32.3599081,31.3412331 32.3599081,30.616842 C32.3599081,29.9829998 31.8166148,29.4397065 31.0922237,29.4397065 Z M31.0922237,21.109209 L8.18335556,21.109209 C7.45896447,21.109209 6.91567116,21.6525023 6.91567116,22.3768934 C6.91567116,23.1012845 7.45896447,23.6445778 8.18335556,23.6445778 L31.0922237,23.6445778 C31.8166148,23.6445778 32.3599081,23.0107356 32.3599081,22.2863445 C32.2693592,21.6525023 31.7260659,21.1997579 31.0922237,21.109209 L31.0922237,21.109209 Z" id="Shape" fill="#555555"></path>
                    </g>
                </g>
                <ellipse id="椭圆形" fill="#E5E5E5" cx="29" cy="74" rx="29" ry="5"></ellipse>
            </g>
        </g>
    </g>
</svg>