<?xml version="1.0" encoding="UTF-8"?>
<svg width="14px" height="14px" viewBox="0 0 14 14" version="1.1" xmlns="http://www.w3.org/2000/svg" xmlns:xlink="http://www.w3.org/1999/xlink">
    <!-- Generator: Sketch 54.1 (76490) - https://sketchapp.com -->
    <title>搜索</title>
    <desc>Created with Sketch.</desc>
    <g id="页面1" stroke="none" stroke-width="1" fill="none" fill-rule="evenodd">
        <g id="首页-选择门店" transform="translate(-231.000000, -83.000000)" fill="#000000" fill-rule="nonzero">
            <g id="搜索" transform="translate(231.000000, 83.000000)">
                <path d="M13.7632191,12.7779543 L10.5930494,9.60834516 C11.3878306,8.60118345 11.8632706,7.33040306 11.8632706,5.94790145 C11.8632706,2.68100312 9.21516209,0.0328945695 5.94799032,0.0328945695 C2.68080488,0.0328945695 0.032709999,2.68100312 0.032709999,5.94790145 C0.032709999,9.21479979 2.68081855,11.8636056 5.94799032,11.8636056 C7.33049193,11.8636056 8.60113013,11.3881656 9.6080102,10.5933844 L12.7783166,13.7635541 C13.0503367,14.0348741 13.4911977,14.0348741 13.7632178,13.7635541 C14.0353786,13.4913932 14.0353786,13.0505335 13.7632178,12.777953 L13.7632191,12.7779543 Z M0.980219891,5.94902255 C0.980219891,3.20488264 3.20454084,0.980274578 5.94868075,0.980274578 C8.69268394,0.980274578 10.9178525,3.20501935 10.9178525,5.94902255 C10.9178525,7.27132409 10.4002717,8.47182822 9.55775097,9.36195035 C9.51981092,9.38729038 9.48355088,9.41655041 9.44981084,9.45015045 C9.4163508,9.48361049 9.38723077,9.51973053 9.36189074,9.55781057 C8.47162915,10.400051 7.27070666,10.9173516 5.9486895,10.9173516 C3.20454959,10.9172116 0.980228641,8.69303066 0.980228641,5.94902747 L0.980219891,5.94902255 Z" id="形状"></path>
            </g>
        </g>
    </g>
</svg>