<?xml version="1.0" standalone="no"?><!DOCTYPE svg PUBLIC "-//W3C//DTD SVG 1.1//EN" "http://www.w3.org/Graphics/SVG/1.1/DTD/svg11.dtd"><svg t="1575872476422" class="icon" viewBox="0 0 1024 1024" version="1.1" xmlns="http://www.w3.org/2000/svg" p-id="7585" xmlns:xlink="http://www.w3.org/1999/xlink" width="200" height="200"><defs><style type="text/css"></style></defs><path d="M780.8 396.8c0 6.4 6.4 19.2 12.8 25.6 6.4 6.4 12.8 12.8 25.6 12.8 6.4 0 19.2-6.4 25.6-12.8 6.4-6.4 12.8-12.8 12.8-25.6 0-6.4-6.4-19.2-12.8-25.6-6.4-6.4-12.8-12.8-25.6-12.8-6.4 0-19.2 6.4-25.6 12.8C780.8 377.6 780.8 384 780.8 396.8M441.6 755.2c-108.8 0-198.4-89.6-198.4-198.4 0-108.8 89.6-198.4 198.4-198.4C550.4 358.4 640 448 640 556.8 640 665.6 550.4 755.2 441.6 755.2zM441.6 326.4c-128 0-230.4 102.4-230.4 230.4 0 128 102.4 230.4 230.4 230.4 128 0 230.4-102.4 230.4-230.4C672 428.8 569.6 326.4 441.6 326.4zM928 768c0 44.8-32 76.8-76.8 76.8L166.4 844.8c-44.8 0-76.8-32-76.8-76.8L89.6 345.6c0-44.8 32-76.8 76.8-76.8l684.8 0c44.8 0 76.8 32 76.8 76.8L928 768zM281.6 179.2l198.4 0c25.6 0 64 25.6 70.4 51.2l6.4 6.4L204.8 236.8l6.4-6.4C217.6 204.8 256 179.2 281.6 179.2zM844.8 236.8l-256 0 0-6.4C569.6 185.6 524.8 147.2 480 147.2L281.6 147.2c-51.2 0-96 38.4-102.4 83.2l0 6.4-6.4 0C108.8 243.2 64 294.4 64 352l0 403.2c0 64 51.2 115.2 115.2 115.2l659.2 0c64 0 115.2-51.2 115.2-115.2L953.6 352C960 288 908.8 236.8 844.8 236.8z" p-id="7586" fill="#FEB21C"></path></svg>