<?xml version="1.0" standalone="no"?><!DOCTYPE svg PUBLIC "-//W3C//DTD SVG 1.1//EN" "http://www.w3.org/Graphics/SVG/1.1/DTD/svg11.dtd"><svg t="1575871717758" class="icon" viewBox="0 0 1025 1024" version="1.1" xmlns="http://www.w3.org/2000/svg" p-id="2315" xmlns:xlink="http://www.w3.org/1999/xlink" width="200.1953125" height="200"><defs><style type="text/css"></style></defs><path d="M347.093333 345.6 619.754667 72.96l0 206.656c0 11.776 9.557333 21.354667 21.376 21.354667 11.797333 0 21.376-9.578667 21.376-21.376L662.506667 0l-21.248 0c-0.085333 0-0.170667 0-0.256 0L382.890667 0c-11.797333 0-21.376 9.557333-21.354667 21.376 0 11.776 9.557333 21.354667 21.354667 21.354667l206.634667 0L316.138667 316.138667c-0.661333 0.661333-0.917333 1.514667-1.472 2.218667-32.192-21.653333-70.912-34.325333-112.533333-34.325333C90.666667 284.032 0 374.72 0 486.165333c0 111.466667 90.666667 202.176 202.133333 202.176 111.445333 0 202.112-90.709333 202.133333-202.176C404.266667 431.552 382.4 382.016 347.093333 345.6zM202.133333 645.589333c-87.872 0-159.402667-71.530667-159.402667-159.424 0-87.872 71.530667-159.381333 159.402667-159.381333s159.381333 71.509333 159.402667 159.381333C361.536 574.058667 290.005333 645.589333 202.133333 645.589333z" p-id="2316" fill="#888888"></path><path d="M821.866667 361.514667c-111.466667 0-202.154667 90.688-202.154667 202.133333 0 48.042667 16.917333 92.181333 45.034667 126.912l-165.674667 165.674667-101.098667-101.098667c-8.362667-8.384-21.845333-8.384-30.208 0-8.362667 8.362667-8.362667 21.845333 0 30.208l101.098667 101.098667L367.786667 987.52c-8.362667 8.362667-8.362667 21.845333 0 30.229333C371.946667 1021.909333 377.408 1024 382.890667 1024c5.461333 0 10.922667-2.090667 15.104-6.250667l101.098667-101.098667 101.098667 101.098667C604.352 1021.909333 609.813333 1024 615.296 1024c5.461333 0 10.922667-2.090667 15.104-6.250667 8.362667-8.384 8.362667-21.866667 0-30.229333l-101.077333-101.077333 165.674667-165.674667c34.730667 28.096 78.848 45.013333 126.890667 45.013333 111.445333 0 202.133333-90.709333 202.133333-202.154667S933.312 361.514667 821.866667 361.514667zM821.866667 723.050667c-87.872 0-159.424-71.552-159.424-159.402667 0-87.872 71.552-159.402667 159.424-159.402667s159.402667 71.530667 159.402667 159.402667C981.269333 651.498667 909.76 723.050667 821.866667 723.050667z" p-id="2317" fill="#888888"></path></svg>