<?xml version="1.0" standalone="no"?><!DOCTYPE svg PUBLIC "-//W3C//DTD SVG 1.1//EN" "http://www.w3.org/Graphics/SVG/1.1/DTD/svg11.dtd"><svg t="1575871156930" class="icon" viewBox="0 0 1024 1024" version="1.1" xmlns="http://www.w3.org/2000/svg" p-id="1411" xmlns:xlink="http://www.w3.org/1999/xlink" width="200" height="200"><defs><style type="text/css"></style></defs><path d="M437.47 638.42m-25 0a25 25 0 1 0 50 0 25 25 0 1 0-50 0Z" fill="#FEB21C" p-id="1412"></path><path d="M394.36 729.22m-25 0a25 25 0 1 0 50 0 25 25 0 1 0-50 0Z" fill="#FEB21C" p-id="1413"></path><path d="M437.47 817m-25 0a25 25 0 1 0 50 0 25 25 0 1 0-50 0Z" fill="#FEB21C" p-id="1414"></path><path d="M669 513.31v-50a122.68 122.68 0 1 0-118.86-153.13l-48.44-12.36A172.52 172.52 0 0 1 669 168c95.21 0 172.68 77.46 172.68 172.68S764.23 513.31 669 513.31zM352.53 128.24a15 15 0 0 1 14.41 10.82L399 253a15 15 0 0 1-10.23 18.58 14.77 14.77 0 0 1-4.18 0.6 15 15 0 0 1-14.4-10.83L343 164.16l-133.88 61.69a15 15 0 1 1-12.56-27.24l149.69-69a15.16 15.16 0 0 1 6.28-1.37m0-50a65.46 65.46 0 0 0-27.2 6l-149.7 69A65 65 0 0 0 230 271.27l80.6-37.15 11.4 40.71 0.06 0.22 0.06 0.23a65 65 0 0 0 80.56 44.32 65 65 0 0 0 44.37-80.28l-32-113.8-0.05-0.19-0.06-0.19a65 65 0 0 0-62.43-46.9z" fill="#FEB21C" p-id="1415"></path><path d="M482.64 560.73c-17.25 0-37.1-5.06-58.12-20-16.5-11.73-36.4-15.1-59.16-10a116.24 116.24 0 0 0-32.92 12.91l0.11-0.07-27-42.08a162.71 162.71 0 0 1 47-19.11c37.39-8.85 72.3-2.76 101 17.61 15.69 11.15 30.67 13.52 45.79 7.26a59.69 59.69 0 0 0 19.1-12.89l0.68-0.77 0.74-0.71c3.29-3.19 33.39-31 76.92-29.09 30.22 1.34 58.22 16.59 82.99 45.31L642 541.79c-15.35-17.75-31.18-27.19-47.05-28-20.7-1.11-37.35 12.46-40.11 14.86a110 110 0 0 1-36.4 24.83 93.41 93.41 0 0 1-35.8 7.25z" fill="#FEB21C" p-id="1416"></path><path d="M633.64 964.73H346.51a36.93 36.93 0 0 1-37-36l-30-612.38v-0.61a36.92 36.92 0 0 1 37-36.76h347.13a36.92 36.92 0 0 1 37 36.76v1.22l-30 611.77a36.93 36.93 0 0 1-37 36z m-274.74-50h262.36L650 329H330.19z" fill="#FEB21C" p-id="1417"></path></svg>