<?xml version="1.0" standalone="no"?><!DOCTYPE svg PUBLIC "-//W3C//DTD SVG 1.1//EN" "http://www.w3.org/Graphics/SVG/1.1/DTD/svg11.dtd"><svg t="1575872120888" class="icon" viewBox="0 0 1024 1024" version="1.1" xmlns="http://www.w3.org/2000/svg" p-id="5647" xmlns:xlink="http://www.w3.org/1999/xlink" width="200" height="200"><defs><style type="text/css"></style></defs><path d="M901.461333 828.074667H117.418667A25.6 25.6 0 0 1 91.818667 802.133333c0-4.608 47.616-460.8 236.714666-460.8 59.733333 0 116.906667 41.642667 159.232 115.882667C521.728 290.133333 588.288 136.533333 689.664 136.533333c207.872 1.706667 238.933333 644.608 238.933333 651.093334 0.170667 10.581333 0 40.448-27.136 40.448z m-755.029333-51.2h731.136a1897.642667 1897.642667 0 0 0-26.112-237.909334c-26.624-156.330667-65.536-270.677333-109.738667-322.048a70.656 70.656 0 0 0-51.2-29.866666c-57.685333 0-132.778667 123.733333-165.376 360.618666a25.6 25.6 0 0 1-49.493333 4.949334c-34.133333-98.986667-89.941333-160.426667-145.237333-160.426667-51.2 0-102.4 68.266667-140.117334 192.853333a1346.730667 1346.730667 0 0 0-43.861333 191.829334zM902.656 904.533333h-290.133333a25.6 25.6 0 0 1 0-51.2h290.133333a25.6 25.6 0 0 1 0 51.2z" p-id="5648" fill="#FEB21C"></path><path d="M774.656 691.882667h-1.194667A25.6 25.6 0 0 1 749.056 665.6c8.192-168.96-47.616-275.626667-48.128-276.821333a25.6 25.6 0 0 1 45.056-24.234667c2.56 4.778667 62.976 119.466667 54.272 303.616a25.6 25.6 0 0 1-25.6 23.722667z" opacity=".6" p-id="5649" fill="#FEB21C"></path></svg>