<?xml version="1.0" standalone="no"?><!DOCTYPE svg PUBLIC "-//W3C//DTD SVG 1.1//EN" "http://www.w3.org/Graphics/SVG/1.1/DTD/svg11.dtd"><svg t="1575872047443" class="icon" viewBox="0 0 1024 1024" version="1.1" xmlns="http://www.w3.org/2000/svg" p-id="4976" xmlns:xlink="http://www.w3.org/1999/xlink" width="200" height="200"><defs><style type="text/css"></style></defs><path d="M609.1 219h142.2v50.2H609.1zM192 846h282.6V461.6H192V846z m40-344.4h202.6v62.3H304.4v49.3h130.1V806H232V501.6zM416.5 208.2c0-12.9-9.5-24.2-23.1-27.6l-127.2-31.2c-1.1-0.3-2.2-0.4-3.4-0.4-6.8 0-12.8 5.1-12.8 11.7v279.1h166.4V208.2z m-40 191.6h-86.4V196.5l86.4 21.2v182.1zM680.7 295.6c-78 0-141.3 63.3-141.3 141.3V846H822V436.9c0-78-63.3-141.3-141.3-141.3zM579.4 806V436.9c0.1-55.9 45.4-101.2 101.3-101.3 55.9 0.1 101.2 45.4 101.3 101.3v253.5H664.1v49.3H782V806H579.4z" p-id="4977" fill="#888888"></path></svg>