<?xml version="1.0" standalone="no"?><!DOCTYPE svg PUBLIC "-//W3C//DTD SVG 1.1//EN" "http://www.w3.org/Graphics/SVG/1.1/DTD/svg11.dtd"><svg t="1575862846785" class="icon" viewBox="0 0 1024 1024" version="1.1" xmlns="http://www.w3.org/2000/svg" p-id="1036" xmlns:xlink="http://www.w3.org/1999/xlink" width="200" height="200"><defs><style type="text/css"></style></defs><path d="M355.87 884.82H168.2a25 25 0 0 1-25-25v-373a25 25 0 0 1 25-25h187.67a25 25 0 0 1 25 25v373a25 25 0 0 1-25 25z m-162.67-50h137.67v-323H193.2z" fill="#888888" p-id="1037"></path><path d="M262.29 767.16m-25 0a25 25 0 1 0 50 0 25 25 0 1 0-50 0Z" fill="#888888" p-id="1038"></path><path d="M770.58 837.83h-1.83c-70.15-1-253.77 0-255.62 0H513a25 25 0 0 1-0.13-50c1.84 0 186-1 256.58 0 11.68 0.15 20.33-2 22.62-5.73 4.77-7.7-1.1-29.92-7.23-41.83a25 25 0 0 1 14.8-35.27c15-4.67 16.61-10.24 17.22-12.34 1.75-6.07 0.06-15.11-1.43-23.08-2.27-12.12-4.84-25.86 4.32-37.87 29.66-38.88 26.12-53.26 26-53.85a1.21 1.21 0 0 0-0.84-0.95 25 25 0 0 1-12.07-40.38c18.2-21.07 26.41-39.38 23.14-51.55-4.26-15.82-28.15-25.19-35.38-27.69a25.7 25.7 0 0 0-8.41-1.42H699.86c-19.52 0-31.85-8.34-38.77-15.33-14.86-15-16.54-35.08-16.68-41.57-0.67-9-4.55-71.61 12.15-129.08 7.62-26.22 9.38-48.71 5.09-65-4-15.25-12.86-24.42-28.61-29.54-0.28 14.88-2.16 36-10 63.43C604.1 305 578.52 362.25 547 408.91c-25.71 38.06-55.42 69.24-88.32 92.67-57.68 41.07-106 44.25-108 44.36L347.83 496h-0.21c0.38 0 38.54-3.2 85-37.34 27.51-20.2 52.58-47.16 74.51-80.13C535 336.71 557.8 285 575 225c8.87-31 8.33-50.4 8-63.21-0.33-11.54-0.73-25.91 12-35.64 13.6-10.42 28.45-6 50.92 0.77 33.41 10 55.6 32.57 64.19 65.22 6.69 25.44 4.86 56.3-5.43 91.71-15.1 51.94-10.32 111.32-10.27 111.92a14 14 0 0 1 0.1 2.2c0.13 3 1.39 6.76 2.28 7.45a7.28 7.28 0 0 0 3.17 0.45h112.18a75.65 75.65 0 0 1 24.75 4.13c48.59 16.81 63 46 67.32 61.95 6.36 23.66 0.37 49.36-17.8 76.64a50.87 50.87 0 0 1 6.31 12.2c9 25.2-0.46 56.47-28.9 95.44 0.24 1.37 0.51 2.85 0.75 4.12 2.14 11.43 5.37 28.7 0.31 46.18-4.7 16.25-14.84 27.34-26.17 34.9 5.57 19 9.15 45.58-4.14 67-14.96 24.13-42.67 29.4-63.99 29.4z m75.31-260.7z m0 0z m0 0z" fill="#888888" p-id="1039"></path></svg>