<?xml version="1.0" standalone="no"?><!DOCTYPE svg PUBLIC "-//W3C//DTD SVG 1.1//EN" "http://www.w3.org/Graphics/SVG/1.1/DTD/svg11.dtd"><svg t="1575871335298" class="icon" viewBox="0 0 1024 1024" version="1.1" xmlns="http://www.w3.org/2000/svg" p-id="1761" xmlns:xlink="http://www.w3.org/1999/xlink" width="200" height="200"><defs><style type="text/css"></style></defs><path d="M490.62 849c-52.23 0-101.72-9-139.36-25.49-44.26-19.31-68.57-47.51-68.57-79.4S307 684 351.26 664.71c37.64-16.44 87.13-25.49 139.36-25.49s101.72 9 139.36 25.49c44.22 19.31 68.57 47.51 68.57 79.4S674.2 804.2 630 823.51C592.34 840 542.85 849 490.62 849z m0-159.78c-44.83 0-88.33 7.77-119.34 21.31-28.48 12.47-38.59 25.87-38.59 33.58s10.11 21.15 38.59 33.58c31 13.55 74.51 21.31 119.34 21.31S579 791.24 610 777.69c28.48-12.43 38.58-25.86 38.58-33.58S638.45 723 610 710.53c-31-13.53-74.54-21.31-119.38-21.31z" fill="#888888" p-id="1762"></path><path d="M799.37 954.73h-617.5a25 25 0 0 1-25-24L136.89 414a25 25 0 0 1 25-26H277.3a25 25 0 0 1 24.92 27c-0.19 2.34-0.28 4.52-0.28 6.66 0 31.58 18.44 61.9 51.92 85.35 36.2 25.35 84.77 39.31 136.76 39.31s100.56-14 136.76-39.31c33.48-23.45 51.93-53.77 51.93-85.35 0-2.14-0.1-4.32-0.29-6.66a25 25 0 0 1 24.92-27h115.43a25 25 0 0 1 25 26l-20 516.72a25 25 0 0 1-25 24.01z m-593.45-50h569.4L793.38 438h-65.07a138.68 138.68 0 0 1-19.39 54.88c-12.58 20.82-30.36 39.37-52.86 55.12-44.52 31.19-103.28 48.36-165.44 48.36S369.7 579.19 325.18 548c-22.5-15.75-40.28-34.3-52.85-55.12A138.37 138.37 0 0 1 252.94 438h-65.08z" fill="#888888" p-id="1763"></path><path d="M537.17 588.16h-91.71a25 25 0 0 1-25-25v-465a25 25 0 0 1 25-25h91.71a25 25 0 0 1 25 25v465a25 25 0 0 1-25 25z m-66.71-50h41.71v-415h-41.71z" fill="#888888" p-id="1764"></path><path d="M445.16 547.51a25 25 0 0 1-25-25V211h-41.71v311.51a25 25 0 0 1-50 0V186a25 25 0 0 1 25-25h91.71a25 25 0 0 1 25 25v336.51a25 25 0 0 1-25 25zM629.32 547.51a25 25 0 0 1-25-25V211h-41.71v311.51a25 25 0 0 1-50 0V186a25 25 0 0 1 25-25h91.71a25 25 0 0 1 25 25v336.51a25 25 0 0 1-25 25z" fill="#888888" p-id="1765"></path><path d="M631.15 547.51a25 25 0 0 1-25-25v-269a25 25 0 0 1 25-25h91.71a25 25 0 0 1 25 25v159a25 25 0 0 1-50 0v-134h-41.71v244a25 25 0 0 1-25 25zM354 437.51a25 25 0 0 1-25-25v-134h-41.71v126a25 25 0 1 1-50 0v-151a25 25 0 0 1 25-25H354a25 25 0 0 1 25 25v159a25 25 0 0 1-25 25z" fill="#888888" p-id="1766"></path></svg>