<?xml version="1.0" standalone="no"?><!DOCTYPE svg PUBLIC "-//W3C//DTD SVG 1.1//EN" "http://www.w3.org/Graphics/SVG/1.1/DTD/svg11.dtd"><svg t="1576120374039" class="icon" viewBox="0 0 1024 1024" version="1.1" xmlns="http://www.w3.org/2000/svg" p-id="8652" xmlns:xlink="http://www.w3.org/1999/xlink" width="200" height="200"><defs><style type="text/css"></style></defs><path d="M518.096 651.936c18.432-21.648 40.24-51.6 60.704-83.648 46.56-72.912 77.2-142.4 77.2-176.256C656 317.36 591.968 256 512 256s-144 61.36-144 136.032c0 33.856 30.64 103.36 77.2 176.256 20.48 32.048 42.272 62 60.704 83.648 2.112 2.48 4.144 4.832 6.096 7.008 1.952-2.176 4-4.528 6.096-7.008zM512 720c-30 0-192-226.336-192-327.968C320 290.384 405.968 208 512 208s192 82.4 192 184.032S542 720 512 720z m0-265.344a72 72 0 1 1 0-144 72 72 0 0 1 0 144z m0-48a24 24 0 1 0 0-48 24 24 0 0 0 0 48z m144 376v16a16 16 0 0 1-16 16H384a16 16 0 0 1-16-16v-16a16 16 0 0 1 16-16h256a16 16 0 0 1 16 16z" p-id="8653" fill="#FEB21C"></path></svg>