<?xml version="1.0" standalone="no"?><!DOCTYPE svg PUBLIC "-//W3C//DTD SVG 1.1//EN" "http://www.w3.org/Graphics/SVG/1.1/DTD/svg11.dtd"><svg t="1585753269665" class="icon" viewBox="0 0 1024 1024" version="1.1" xmlns="http://www.w3.org/2000/svg" p-id="2275" xmlns:xlink="http://www.w3.org/1999/xlink" width="200" height="200"><defs><style type="text/css"></style></defs><path d="M568.948399 1006.322312c29.496944-38.98795 227.075273-300.049689 258.580687-341.794362 50.13299-66.39766 15.358889-132.125831-13.389801-160.795758l-67.185296-66.712715 243.576234-242.867362a114.758471 114.758471 0 0 0-1.614652-163.473718 104.794884 104.794884 0 0 0-81.717168-30.402725c-28.236727 2.047852-55.607056 15.240744-76.873211 36.900717l-242.473544 241.804054-70.887182-70.414601c-34.852864-31.820468-119.956865-73.762051-192.813135-4.725812C298.277509 228.414253 108.299861 382.396965 11.538858 460.491011a30.954069 30.954069 0 0 0-2.44167 46.037286l509.403167 507.906659a31.111597 31.111597 0 0 0 50.408662-8.073262z m305.602518-925.550306c10.869368-11.105659 24.022878-17.721796 37.137007-18.666958 12.523402-0.905781 24.180405 3.544359 33.671412 12.838456 20.320992 20.596665 21.541827 54.740657 1.023926 75.612994l-243.458089 242.709835-71.044709-70.532746 242.631071-241.961581z m-424.456693 777.789913l128.227036-114.364653a30.954069 30.954069 0 0 0 2.441669-43.792526 31.150978 31.150978 0 0 0-43.871289-2.402288l-130.826232 116.688178-83.09553-82.898621 128.384563-114.207127a30.914688 30.914688 0 0 0 2.481051-43.713762 31.308505 31.308505 0 0 0-43.910671-2.520433l-130.98376 116.570033-78.684772-78.448482 128.148273-114.561562a30.914688 30.914688 0 0 0 2.362906-43.713763 31.19036 31.19036 0 0 0-43.87129-2.441669l-130.668705 116.806323-78.763536-78.566627c71.556672-57.812435 261.298029-211.480093 289.455993-238.220313 48.085138-45.525324 102.116924 0.236291 107.079027 4.607667l296.544711 294.496859c6.379846 6.419228 36.861335 40.287548 7.364391 79.393644-27.646001 36.625044-183.085838 241.961581-240.701365 318.165302l-87.11247-86.836798z" p-id="2276" fill="#feb21c"></path></svg>