<?xml version="1.0" standalone="no"?><!DOCTYPE svg PUBLIC "-//W3C//DTD SVG 1.1//EN" "http://www.w3.org/Graphics/SVG/1.1/DTD/svg11.dtd"><svg t="1576119024788" class="icon" viewBox="0 0 1024 1024" version="1.1" xmlns="http://www.w3.org/2000/svg" p-id="8423" xmlns:xlink="http://www.w3.org/1999/xlink" width="200" height="200"><defs><style type="text/css"></style></defs><path d="M535.744 497.52v41.056h82.432a16 16 0 0 1 16 16v16a16 16 0 0 1-16 16h-82.432v81.696a16 16 0 0 1-16 16h-16a16 16 0 0 1-16-16V586.56h-82.432a16 16 0 0 1-16-16v-16a16 16 0 0 1 16-16h82.432v-41.056h-82.432a16 16 0 0 1-16-16v-16a16 16 0 0 1 16-16h57.76l-54.032-64.384a16 16 0 0 1 1.968-22.544l12.256-10.288a16 16 0 0 1 22.56 1.968l65.92 78.592 65.92-78.592a16 16 0 0 1 22.56-1.968l12.256 10.288a16 16 0 0 1 1.968 22.544l-54.032 64.384h57.76a16 16 0 0 1 16 16v16a16 16 0 0 1-16 16h-82.432z m180.16 218.4v-43.488a16 16 0 0 1 16-16h16a16 16 0 0 1 16 16v43.488h43.488a16 16 0 0 1 16 16v16a16 16 0 0 1-16 16h-43.472v43.472a16 16 0 0 1-16 16h-16a16 16 0 0 1-16-16v-43.472h-43.488a16 16 0 0 1-16-16v-16a16 16 0 0 1 16-16h43.488z m116.592-105.28c-1.632 5.328-4.24 15.136-20.512 10.384l-15.952-5.808c-15.136-4.56-10.88-13.936-9.504-18.384 45.232-145.664-31.52-302.672-176.4-355.392-149.28-54.336-314.352 22.64-368.688 171.92-54.336 149.28 22.64 314.352 171.92 368.688a286.256 286.256 0 0 0 179.376 5.728c5.44-1.6 17.392-4.56 20.96 8.016l5.808 16.192c4.24 14.096-4.208 19.088-9.168 20.624a334.24 334.24 0 0 1-213.392-5.44c-174.192-63.424-264-256.032-200.608-430.224 63.392-174.192 256-264 430.208-200.608 168.912 61.472 258.496 244.448 205.952 414.32z" p-id="8424" fill="#FEB21C"></path></svg>