<?xml version="1.0" standalone="no"?><!DOCTYPE svg PUBLIC "-//W3C//DTD SVG 1.1//EN" "http://www.w3.org/Graphics/SVG/1.1/DTD/svg11.dtd"><svg t="1576120569091" class="icon" viewBox="0 0 1024 1024" version="1.1" xmlns="http://www.w3.org/2000/svg" p-id="8881" xmlns:xlink="http://www.w3.org/1999/xlink" width="200" height="200"><defs><style type="text/css"></style></defs><path d="M343.312 374.256v-16a16 16 0 0 1 16-16h23.648a16 16 0 0 1 16 16v16a16 16 0 0 1-16 16h-23.648a16 16 0 0 1-16-16z m100.16 0v-16a16 16 0 0 1 16-16H650.08a16 16 0 0 1 16 16v16a16 16 0 0 1-16 16H459.472a16 16 0 0 1-16-16z m-100.16 144.704v-16a16 16 0 0 1 16-16h23.648a16 16 0 0 1 16 16v16a16 16 0 0 1-16 16h-23.648a16 16 0 0 1-16-16z m100.16 0v-16a16 16 0 0 1 16-16H650.08a16 16 0 0 1 16 16v16a16 16 0 0 1-16 16H459.472a16 16 0 0 1-16-16z m-100.16 144.688v-16a16 16 0 0 1 16-16h23.648a16 16 0 0 1 16 16v16a16 16 0 0 1-16 16h-23.648a16 16 0 0 1-16-16z m100.16 0v-16a16 16 0 0 1 16-16H650.08a16 16 0 0 1 16 16v16a16 16 0 0 1-16 16H459.472a16 16 0 0 1-16-16zM256 240v541.92h497.392V240H256z m529.392 589.92H224a16 16 0 0 1-16-16V208a16 16 0 0 1 16-16h561.392a16 16 0 0 1 16 16v605.92a16 16 0 0 1-16 16z" p-id="8882" fill="#FEB21C"></path></svg>