<?xml version="1.0" standalone="no"?><!DOCTYPE svg PUBLIC "-//W3C//DTD SVG 1.1//EN" "http://www.w3.org/Graphics/SVG/1.1/DTD/svg11.dtd"><svg t="1577594558735" class="icon" viewBox="0 0 1031 1024" version="1.1" xmlns="http://www.w3.org/2000/svg" p-id="2519" xmlns:xlink="http://www.w3.org/1999/xlink" width="201.3671875" height="200"><defs><style type="text/css"></style></defs><path d="M444.8 1024c-25.6 0-51.2-6.4-70.4-25.6l-345.6-345.6c-38.4-38.4-38.4-102.4 0-140.8L515.2 32c38.4-38.4 102.4-38.4 140.8 0l345.6 345.6c38.4 38.4 38.4 102.4 0 140.8l-38.4 38.4c-12.8 12.8-32 12.8-44.8 0s-12.8-32 0-44.8l38.4-38.4c12.8-12.8 12.8-38.4 0-51.2L604.8 76.8c-12.8-12.8-32-12.8-51.2 0L80 556.8c-12.8 12.8-12.8 38.4 0 51.2l345.6 345.6c12.8 12.8 32 12.8 51.2 0l32-32c12.8-12.8 32-12.8 44.8 0s12.8 32 0 44.8L515.2 992C496 1011.2 470.4 1024 444.8 1024z" p-id="2520" fill="#feb21c"></path><path d="M137.6 742.4c-6.4 0-19.2 0-25.6-6.4-12.8-12.8-12.8-32 0-44.8l576-576c12.8-12.8 32-12.8 44.8 0s12.8 32 0 44.8l-576 576C156.8 742.4 150.4 742.4 137.6 742.4z" p-id="2521" fill="#feb21c"></path><path d="M406.4 787.2c-6.4 0-19.2 0-25.6-6.4-12.8-12.8-12.8-32 0-44.8l64-64c12.8-12.8 32-12.8 44.8 0 12.8 12.8 12.8 32 0 44.8l-64 64C425.6 780.8 412.8 787.2 406.4 787.2z" p-id="2522" fill="#feb21c"></path><path d="M995.2 864l-320 0c-19.2 0-32-12.8-32-32s12.8-32 32-32l320 0c19.2 0 32 12.8 32 32S1014.4 864 995.2 864z" p-id="2523" fill="#feb21c"></path><path d="M835.2 1024c-19.2 0-32-12.8-32-32l0-320c0-19.2 12.8-32 32-32 19.2 0 32 12.8 32 32l0 320C867.2 1011.2 854.4 1024 835.2 1024z" p-id="2524" fill="#feb21c"></path></svg>